<?xml version="1.0" standalone="no"?><!DOCTYPE svg PUBLIC "-//W3C//DTD SVG 20010904//EN" "http://www.w3.org/TR/2001/REC-SVG-20010904/DTD/svg10.dtd"><svg version="1.0" xmlns="http://www.w3.org/2000/svg" width="128.000000pt" height="128.000000pt" viewBox="0 0 128.000000 128.000000" preserveAspectRatio="xMidYMid meet"><g transform="translate(0.000000,128.000000) scale(0.100000,-0.100000)" fill="#000000" stroke="none"><path d="M149 1253 c-6 -16 -12 -66 -12 -113 -1 -78 5 -105 38 -182 6 -14 2 -18 -17 -18 -33 0 -119 -26 -142 -43 -16 -12 -17 -18 -7 -49 6 -19 22 -49 35 -67 l24 -32 -24 -26 c-13 -14 -29 -44 -36 -66 -11 -37 -10 -41 11 -58 29 -24 113 -49 163 -49 31 0 44 -6 63 -28 13 -15 34 -33 48 -41 l24 -13 -19 -36 c-24 -48 -24 -132 1 -180 53 -103 167 -148 271 -106 40 16 40 16 61 -10 47 -60 176 -90 238 -56 19 10 26 8 47 -15 78 -84 215 -84 300 0 72 73 83 174 26 264 l-29 47 22 28 c27 33 45 90 45 138 0 42 -44 134 -75 154 l-22 14 18 53 c61 174 -113 335 -285 263 -22 -9 -40 -15 -41 -14 -31 49 -55 71 -97 92 -29 14 -60 26 -69 26 -10 0 -28 19 -43 44 -27 46 -91 106 -113 106 -7 0 -19 -16 -27 -35 -8 -19 -17 -35 -19 -35 -3 0 -26 9 -52 21 -54 24 -177 48 -248 49 -43 0 -49 -3 -58 -27z m199 -38 c34 -8 85 -26 112 -40 61 -31 68 -31 82 0 15 34 24 32 47 -14 l20 -39 -30 -12 c-89 -37 -148 -113 -149 -191 0 -35 -1 -36 -45 -42 -59 -9 -156 -58 -188 -97 -33 -39 -50 -99 -41 -147 7 -36 6 -36 -22 -30 -53 10 -84 26 -84 43 0 10 18 34 40 55 22 21 40 42 40 46 0 4 -11 18 -24 32 -13 15 -31 38 -41 54 l-17 27 37 16 c21 8 67 16 102 16 70 0 88 14 60 46 -48 55 -78 176 -63 256 7 35 8 36 54 36 26 0 75 -7 110 -15z m350 -177 c15 -15 -3 -38 -30 -38 -10 0 -30 -11 -43 -25 -14 -13 -25 -33 -25 -43 0 -29 -24 -46 -40 -28 -26 32 22 111 80 135 34 13 44 13 58 -1z m326 -93 c5 -15 -21 -35 -47 -35 -19 0 -47 -32 -56 -66 -5 -19 -14 -29 -27 -29 -15 0 -19 6 -16 33 3 41 27 78 61 97 34 19 77 19 85 0z m-599 -174 c0 -8 -7 -17 -15 -21 -65 -30 -74 -38 -85 -70 -16 -49 -45 -53 -45 -7 0 38 37 92 74 108 30 12 71 6 71 -10z m315 -56 c16 -19 7 -31 -29 -38 -35 -7 -59 -30 -68 -65 -12 -51 -43 -51 -43 0 0 38 34 86 74 104 40 17 51 17 66 -1z m345 -74 c0 -8 -14 -19 -32 -25 -40 -14 -55 -29 -69 -69 -14 -42 -38 -42 -42 1 -3 27 4 40 37 73 33 33 46 40 73 37 20 -2 33 -8 33 -17z m-575 -191 c0 -13 -9 -22 -27 -26 -39 -9 -73 -43 -73 -71 0 -27 -26 -41 -43 -24 -19 19 12 92 52 118 44 29 91 31 91 3z m295 -64 c0 -13 -10 -22 -29 -27 -38 -10 -66 -37 -66 -64 0 -26 -18 -45 -36 -38 -38 15 2 104 59 133 49 24 72 22 72 -4z m280 -65 c0 -8 -14 -19 -32 -25 -40 -14 -55 -29 -69 -69 -14 -42 -38 -42 -42 1 -3 27 4 40 37 73 33 33 46 40 73 37 20 -2 33 -8 33 -17z"/></g></svg>
